# xmcd
#
# Track frame offsets: 
#        150
#        15022
#        40160
#        58552
#        75875
#        89265
#        102475
#        124329
#        138335
#        152887
#        168109
#        183002
#
# Disc length: 2821 seconds
#
# Revision: 0
# Processed by: cddbd v1.5PL3 Copyright (c) Steve Scherf et al.
# Submitted via: ExactAudioCopy v0.95a4
#
DISCID=820b030c
DTITLE=Parchman Farm - Nothing but the blues.........
DYEAR=1900
DGENRE=
TTITLE0=I wonder baby
TTITLE1=Cold hearted woman
TTITLE2=Darlin
TTITLE3=Big leg women
TTITLE4=Change my ways
TTITLE5=Two timing woman
TTITLE6=You got me wrong
TTITLE7=Blues take your troubles
TTITLE8=Hydromatic woman
TTITLE9=Living with the blues
TTITLE10=Need some love tonight
TTITLE11=Blues will never die
EXTD=
EXTT0=
EXTT1=
EXTT2=
EXTT3=
EXTT4=
EXTT5=
EXTT6=
EXTT7=
EXTT8=
EXTT9=
EXTT10=
EXTT11=
PLAYORDER=
